<svg version="1.0" xmlns="http://www.w3.org/2000/svg" width="100%" height="100%" viewBox="0 0 600 60"><path d="M28.1 13.4c-.9 1-.8 1.6.4 2.6 1.9 1.5 4.7-.3 3.8-2.6-.7-1.8-2.7-1.8-4.2 0zM576.1 13.4c-.9 1-.8 1.6.4 2.6 1.9 1.5 4.7-.3 3.8-2.6-.7-1.8-2.7-1.8-4.2 0zM330 14c-3.6.4-33 .9-65.5 1-32.4.2-71.6.6-87 .9l-28 .7 22 .3c12.1.1 54.6.6 94.5 1.1 60.8.7 72.7.7 73.9-.5 1.8-1.7.7-4.5-1.6-4.3-1 0-4.7.4-8.3.8zM348.4 14.3c-.8 2.1.2 3.5 1.6 2.1.5-.5.6-1.5 0-2.4-.8-1.2-1-1.2-1.6.3z"/><path d="M23.9 17.9c2.5 4.5 8.7 6.5 13.1 4.1 1.7-.9 1.8-1.4.8-3.5-1.2-2.6-2.3-3.1-3.3-1.5-.8 1.3-7.1 1.3-9.6-.1-1.9-.9-1.9-.9-1 1zM136.4 17.7c.3 1 .8 3.1 1.2 4.8.8 3.7 2.2 5.5 4.1 5.5 1 0 1.2-.6.7-2.3-1.5-4.8-1.5-5.1.4-1.8 1.5 2.7 2 3 2.5 1.7 1.4-3.6-3.3-9.6-7.6-9.6-1.3 0-1.7.5-1.3 1.7zM571.9 17.9c2.5 4.5 8.7 6.5 13.1 4.1 1.7-.9 1.8-1.4.8-3.5-1.2-2.6-2.3-3.1-3.3-1.5-.8 1.3-7.1 1.3-9.6-.1-1.9-.9-1.9-.9-1 1zM353.5 18c-.7 1.2.2 3 1.6 3 .5 0 .9-.9.9-2 0-2.1-1.5-2.7-2.5-1z"/><path d="M379.6 19.8c-3.9 2.9-6.5 6.5-6.6 9.3 0 .9-.6 1.9-1.2 2.1-.7.2-32.3.1-70.3-.3-37.9-.4-69.4-.4-69.9.1-.4.4-.5 1.4-.1 2.1.7 1 15.4 1.1 70.7.5l69.8-.7v3.8c0 4.1 3.7 9.3 6.6 9.3 1.3 0 1.5-1 1.2-5l-.3-5h6.1c3.5 0 6.8-.6 7.9-1.4 1.8-1.3 1.7-1.4-1.3-3-1.7-.9-5-1.6-7.2-1.6h-4.2l2.1-3.4c2-3.2 2.9-9.6 1.4-9.6-.5.1-2.5 1.3-4.7 2.8zM10.7 19.8c-1.2 1.3-1.3 2.2-.5 3.7 1.6 3 1.6 3 3.7 1.1 2.6-2.4 7.6-1.8 7.6.9 0 1.4-.8 2.1-2.7 2.3-4.3.5-3.5 3.8 1.5 5.9 3.1 1.5 3.5 4.2.9 6.6-3.4 3.1-11.6 1.2-14.1-3-1-1.7-1-1.7-1.1-.1-.1 5.1 5.2 9.8 11 9.8 3.9 0 9-4.7 9-8.2 0-2.1.4-2.4 2.8-2 2.4.3 3.4-.3 6.1-3.7 4-5 7.7-5.6 8.8-1.4 1.6 6.2-1 10.3-6.6 10.3-2 0-4.6-.7-5.9-1.5-2-1.5-2.1-1.5-1.5.2 1 2.9 4.6 5.3 8.1 5.3 6.9 0 11.1-9.4 7.5-16.7-3.3-6.9-10.5-7.1-14.8-.3-2.6 4.1-5.3 5.1-7.3 2.7-.7-.8-.6-1.8.4-3.1 1.9-2.7 1.8-4.9-.7-8-1.6-2.1-2.9-2.6-6.3-2.6-2.8 0-4.8.6-5.9 1.8zM558.7 19.8c-1.2 1.3-1.3 2.2-.5 3.7 1.6 3 1.6 3 3.7 1.1 2.6-2.4 7.6-1.8 7.6.9 0 1.4-.8 2.1-2.7 2.3-4.3.5-3.5 3.8 1.5 5.9 3.1 1.5 3.5 4.2.9 6.6-3.4 3.1-11.6 1.2-14.1-3-1-1.7-1-1.7-1.1-.1-.1 5.1 5.2 9.8 11 9.8 3.9 0 9-4.7 9-8.2 0-2.1.4-2.4 2.8-2 2.4.3 3.4-.3 6.1-3.7 4-5 7.7-5.6 8.8-1.4 1.6 6.2-1 10.3-6.6 10.3-2 0-4.6-.7-5.9-1.5-2-1.5-2.1-1.5-1.5.2 1 2.9 4.6 5.3 8.1 5.3 6.9 0 11.1-9.4 7.5-16.7-3.3-6.9-10.5-7.1-14.8-.3-2.6 4.1-5.3 5.1-7.3 2.7-.7-.8-.6-1.8.4-3.1 1.9-2.7 1.8-4.9-.7-8-1.6-2.1-2.9-2.6-6.3-2.6-2.8 0-4.8.6-5.9 1.8zM123.6 21.1l-2.6 2 5.9 3.1c5.6 2.9 9.1 3.2 9.1.9 0-.6-1.2-1.7-2.7-2.5-1.6-.8-2.2-1.5-1.5-1.6.7 0 2.2.5 3.3 1 2.6 1.4 2.5-.4-.1-3s-8-2.6-11.4.1z"/><path d="M388.8 26.6c-5.2 1.5 1 2.1 27.5 2.7 49.4 1.2 64.7 1 64.7-.8 0-1.3-5.2-1.5-40.9-1.5-22.4 0-42.8-.2-45.2-.4-2.4-.3-5.2-.2-6.1 0zM297.3 27.7c2.6.2 6.8.2 9.5 0 2.6-.2.4-.3-4.8-.3s-7.4.1-4.7.3zM329.2 28.1c1.8 1.2 20.8 1.1 20.8-.1 0-.5-4.5-.9-11.1-.8-6.6 0-10.5.4-9.7.9zM359 28c-1.1.7.2 1 4.3 1 3.1 0 5.7-.4 5.7-1 0-1.3-8-1.3-10 0zM487.3 28.2c.2.7 1 1.3 1.7 1.3s1.5-.6 1.8-1.3c.2-.7-.5-1.2-1.8-1.2s-2 .5-1.7 1.2zM493 28.5c0 .8.7 1.5 1.5 1.5s1.5-.7 1.5-1.5-.7-1.5-1.5-1.5-1.5.7-1.5 1.5zM133 32c-2.2 2.3-4 4.3-4 4.5 0 .2 1.3.6 2.8 1 3.6.8 7.8-.8 9.2-3.5 1.5-2.8.5-3.8-1.8-1.7-2.6 2.4-3.6 2.1-1.2-.3 1.1-1.1 2-2.5 2-3 0-2.2-3.3-.8-7 3zM239.3 28.7c2.6.2 6.7.2 9 0s.2-.3-4.8-.3c-4.9 0-6.8.1-4.2.3zM145.8 29.7c.6.2 1.8.2 2.5 0 .6-.3.1-.5-1.3-.5-1.4 0-1.9.2-1.2.5zM200.3 29.7c3.7.2 9.7.2 13.5 0 3.7-.2.6-.3-6.8-.3-7.4 0-10.5.1-6.7.3zM224.3 34.2c.2.7 1 1.3 1.7 1.3s1.5-.6 1.8-1.3c.2-.7-.5-1.2-1.8-1.2s-2 .5-1.7 1.2z"/></svg>