<?xml version="1.0" encoding="utf-8"?>
<!DOCTYPE svg PUBLIC "-//W3C//DTD SVG 1.1//EN" "http://www.w3.org/Graphics/SVG/1.1/DTD/svg11.dtd">
<svg version="1.1" id="Layer_1" xmlns="http://www.w3.org/2000/svg" xmlns:xlink="http://www.w3.org/1999/xlink" x="0px" y="0px"
	 width="100%" height="100%" viewBox="0 0 70 70" enable-background="new 0 0 70 70" xml:space="preserve"
	 style="scale: 1 1">

<g>
	<polygon id="head" fill="#f3d9c3" points="20.989,15.513 50.167,15.762 50.856,15.361 50.723,15.397 52.923,13.834 49.848,14.789 
		51.546,13.419 49.455,14.182 51.371,12.445 48.481,13.652 49.933,12.149 47.989,13.083 49.592,11.197 46.931,12.64 48.113,11.025 
		46.344,12.117 47.611,10.108 45.218,11.766 46.113,10.063 44.545,11.296 45.458,9.195 43.367,11.043 43.964,9.277 42.618,10.634 
		43.163,8.471 41.405,10.482 41.693,8.679 40.592,10.139 40.761,7.946 39.361,10.091 39.338,8.276 38.494,9.819 38.286,7.628 
		37.265,9.876 36.93,8.076 36.358,9.679 35.774,7.521 35.147,9.839 34.505,8.081 34.213,9.721 33.263,7.628 33.039,9.982 
		32.099,8.291 32.091,9.943 30.788,7.946 30.97,10.302 29.746,8.703 30.022,10.343 28.385,8.471 28.971,10.794 27.481,9.31 
		28.037,10.916 26.091,9.195 27.071,11.452 25.337,10.104 26.166,11.651 23.938,10.108 25.298,12.266 23.346,11.075 24.434,12.54 
		21.957,11.197 23.679,13.224 21.536,12.206 22.867,13.569 20.177,12.445 22.235,14.311 19.933,13.482 21.489,14.723 18.625,13.834 
			"/>
	<g>
		<path id="ssa-body" fill="#f3d9c3" d="M66.033,35.989c0-16.894-13.744-30.637-30.638-30.637c-11.024,0-20.707,5.854-26.104,14.616
			c-0.021,0.014-0.043,0.025-0.063,0.043c-0.076,0.075-0.119,0.172-0.13,0.273c-2.755,4.595-4.341,9.968-4.341,15.705
			c0,16.893,13.744,30.637,30.637,30.637c0.002,0,0.005,0,0.008,0c0.083,0.108,0.208,0.177,0.347,0.178c0.002,0,0.003,0,0.005,0
			c0.144,0,0.276-0.071,0.359-0.187c10.962-0.254,20.519-6.296,25.729-15.181c0.184-0.018,0.341-0.142,0.39-0.322
			c0.029-0.106,0.015-0.214-0.03-0.309C64.642,46.412,66.033,41.36,66.033,35.989z M35.396,6.245
			c11.331,0,21.202,6.37,26.222,15.717l-9.635,5.139c-4.573-3.352-10.282-6.383-16.263-6.731c-0.008,0-0.017,0-0.026-0.001V19.32
			h1.247l-1.544-2.675l-1.544,2.675h1.247v1.031c-0.153-0.003-0.304-0.013-0.457-0.013c-5.644,0-10.938,2.502-15.196,5.421
			l-9.247-5.556C15.465,11.826,24.79,6.245,35.396,6.245z M35.693,50.254v-0.771c0.333-0.05,0.668-0.161,1.006-0.346
			c1.469-0.804,1.989-2.693,1.294-4.483c-0.143-0.367-0.14-0.558,0.282-0.484c0.905,0.157,1.452-0.368,1.898-1.109
			c0.265-0.439,0.5-0.902,0.833-1.291c0.311-0.361,0.698-0.511,1.153-0.413c0.438,0.096,0.595,0.469,0.698,0.871
			c0.177,0.683,0.178,1.37-0.005,2.053c-0.239,0.896-1.111,1.655-2.021,1.745c-0.858,0.086-1.359-0.396-1.619-1.229
			c-0.024-0.08-0.064-0.175-0.155-0.157c-0.107,0.021-0.132,0.137-0.152,0.234c-0.134,0.634-0.029,1.254,0.174,1.842
			c0.611,1.77,2.505,2.189,3.734,0.823c0.934-1.036,1.073-2.361,1.089-3.716c-0.023-0.973-0.258-1.886-0.772-2.678
			c-0.141-0.217-0.295-0.421-0.465-0.601l5.957,3.414l-2.615,4.376l-2.639,2.007L35.693,50.254z M42.212,51.222l-6.519,4.959v-5.033
			L42.212,51.222z M36.727,34.193c-0.294-0.274-0.588-0.549-0.892-0.811c-0.051-0.044-0.098-0.054-0.142-0.044V21.263
			c5.559,0.332,10.961,3.151,15.371,6.327l-12.939,6.901c-0.129,0.068-0.216,0.196-0.233,0.341c-0.001,0.004-0.01,0.076-0.033,0.19
			c-0.278,0.191-0.342,0.319-0.62,0.383c-0.47,0.109-0.785,0.159-1.244,0.284l-0.155-0.089c-0.046-0.026-0.095-0.041-0.146-0.049
			V35.36c0.208,0.01,0.4-0.16,0.721-0.525c0.134-0.153,0.308-0.283,0.382-0.502C36.775,34.289,36.764,34.228,36.727,34.193z
			 M49.082,43.19l-11.015-6.313c0.371-0.548,0.583-1.194,0.676-1.703l13.12-6.998c1.528,1.145,2.923,2.317,4.147,3.422L49.082,43.19
			z M49.398,44.402l1.014,0.581l-2.495,1.898L49.398,44.402z M35.961,38.013c0.604,0.022,1.09-0.165,1.481-0.463l4.129,2.366
			c-0.09-0.015-0.182-0.024-0.278-0.025c-1.039-0.007-1.81,0.479-2.309,1.465c-0.248,0.49-0.489,0.987-0.785,1.442
			c-0.394,0.605-0.879,0.705-1.484,0.395c-0.216-0.11-0.324-0.184-0.065-0.399c0.573-0.479,0.869-1.155,1.029-1.891
			c0.232-1.067-0.604-2.486-1.58-2.656c-0.136-0.023-0.271-0.04-0.405-0.05v-0.209C35.78,37.999,35.869,38.009,35.961,38.013z
			 M36.631,40.929c0.093,0.372-0.133,0.725-0.615,0.95c-0.1,0.047-0.207,0.079-0.313,0.11c-0.003,0.001-0.006,0.001-0.01,0.002
			v-1.746C36.103,40.26,36.54,40.561,36.631,40.929z M35.722,44.255c0.682,0.088,1.058,0.376,1.184,0.965
			c0.159,0.744-0.07,1.431-0.61,1.77c-0.183,0.115-0.387,0.196-0.602,0.254v-2.989C35.703,44.255,35.713,44.254,35.722,44.255z
			 M46.686,48.94l4.568-3.476l8.837,5.065l-14.259-0.162L46.686,48.94z M51.185,44.396l-1.327-0.761l6.826-11.42
			c2.259,2.097,3.845,3.868,4.473,4.594L51.185,44.396z M56.496,30.786c-1.112-1.003-2.361-2.057-3.723-3.095l8.181-4.363
			L56.496,30.786z M34.981,34.88c0.042,0.042,0.078,0.073,0.117,0.109v0.774l-0.02,0.011c-0.269-0.028-0.512-0.105-0.731-0.227
			c-0.104-0.366-0.131-0.661-0.133-0.692c-0.01-0.146-0.091-0.277-0.216-0.353l-13.67-8.213c4.091-2.748,9.084-5.058,14.313-5.058
			c0.153,0,0.304,0.009,0.457,0.013v12.688c-0.046,0.051-0.092,0.103-0.139,0.153C34.596,34.479,34.596,34.507,34.981,34.88z
			 M32.757,40.223c0.054,0.104,0.112,0.204,0.168,0.307c0.353,0.647,0.352,0.646,0.963,0.332c0.393-0.201,0.791-0.388,1.209-0.509
			v1.732c-0.219,0.008-0.439-0.009-0.66-0.046c-0.218-0.035-0.457-0.022-0.388,0.316c0.129,0.632,0.344,1.236,0.732,1.741
			c0.093,0.12,0.201,0.167,0.316,0.182v3.056c-1.125,0.05-2.362-0.509-2.768-1.427c-0.333-0.754-0.611-1.518-0.832-2.311
			c-0.033-0.12-0.065-0.301-0.219-0.284c-0.133,0.014-0.125,0.177-0.125,0.292c0.013,2.019,0.52,3.827,2.083,5.095
			c0.581,0.472,1.209,0.758,1.86,0.808v0.74l-6.944-0.078l-2.158-1.851l-2.857-5.018l11.126-6.065
			c0.228,0.246,0.502,0.454,0.833,0.593V38.2c-0.734,0.055-1.432,0.31-2.068,0.757C32.211,39.531,32.302,39.368,32.757,40.223z
			 M35.098,51.141v4.983l-5.888-5.05L35.098,51.141z M15.549,29.975c1.172-1.023,2.506-2.097,3.97-3.129l13.605,8.174
			c0.066,0.315,0.208,0.624,0.405,0.906c0.062,0.189,0.134,0.381,0.229,0.569l-11.061,6.03L15.549,29.975z M23.986,46.594
			l-2.677-2.295l1.045-0.57L23.986,46.594z M15.08,29.151l-4.305-7.559l7.87,4.729C17.341,27.258,16.146,28.223,15.08,29.151z
			 M21.912,42.952l-1.328,0.724l-10.089-8.653c0.553-0.645,2.107-2.396,4.372-4.441L21.912,42.952z M25.296,48.896l0.711,1.249
			l-15.108-0.171l9.57-5.218L25.296,48.896z M5.652,35.989c0-5.354,1.422-10.38,3.908-14.725l4.837,8.493
			c-2.225,2.006-3.792,3.759-4.465,4.546c-0.299-0.299-0.771-0.635-1.415-0.684c-0.497-0.039-0.86,0.082-1.122,0.348
			c-0.245,0.249-0.366,0.607-0.359,1.064c0.017,1.099,0.706,1.33,1.281,1.33l0.053,0c0.648-0.016,1.239-0.366,1.586-0.623
			l9.788,8.396l-10.62,5.789C6.91,45.764,5.652,41.021,5.652,35.989z M9.396,35.039c-0.271,0.193-0.676,0.419-1.048,0.428l-0.032,0
			c-0.345,0-0.382-0.085-0.387-0.45c-0.003-0.203,0.033-0.353,0.102-0.423c0.072-0.072,0.213-0.088,0.319-0.088
			c0.032,0,0.065,0.001,0.099,0.004C8.897,34.544,9.223,34.838,9.396,35.039z M9.64,50.853l16.88,0.191l8.362,14.683
			C24.106,65.543,14.708,59.602,9.64,50.853z M35.765,65.471l-8.21-14.415l0.264,0.003l7.286,6.249
			c0.083,0.071,0.187,0.107,0.291,0.107c0.095,0,0.19-0.03,0.271-0.091l8-6.087l0.602,0.008L35.765,65.471z M36.667,65.703
			l8.635-14.447l15.505,0.176C55.788,59.66,46.886,65.271,36.667,65.703z M61.469,50.29l-9.442-5.412l9.719-7.395
			c0.313,0.316,0.813,0.731,1.311,0.752c0.946,0.03,1.613-0.499,1.613-1.28c0-0.683-0.674-1.413-1.677-1.413
			c-0.451,0-0.888,0.343-1.187,0.646c-0.685-0.8-2.318-2.637-4.636-4.787l4.998-8.363c1.903,3.917,2.972,8.312,2.972,12.951
			C65.14,41.169,63.807,46.044,61.469,50.29z M62.395,36.868c0.23-0.245,0.48-0.432,0.598-0.432c0.479,0,0.783,0.308,0.783,0.52
			c0,0.287-0.336,0.389-0.623,0.389l-0.059-0.002C62.938,37.336,62.647,37.119,62.395,36.868z"/>
	</g>
</g>
</svg>
